<?xml version="1.0" encoding="UTF-8" standalone="no"?><!DOCTYPE svg PUBLIC "-//W3C//DTD SVG 1.1//EN" "http://www.w3.org/Graphics/SVG/1.1/DTD/svg11.dtd"><svg width="100%" height="100%" viewBox="0 0 1280 600" version="1.1" xmlns="http://www.w3.org/2000/svg" xmlns:xlink="http://www.w3.org/1999/xlink" xml:space="preserve" xmlns:serif="http://www.serif.com/" style="fill-rule:evenodd;clip-rule:evenodd;stroke-linecap:round;stroke-linejoin:round;stroke-miterlimit:1.5;"><g><path d="M268.693,269.807c0.367,-0 0.551,0.17 0.551,0.512l-0.551,-0.512Zm-3.303,-2.562l3.303,2.562l-0.55,-0l-2.753,-2.562Zm-45.139,-54.296c-0,5.122 1.651,10.245 4.954,15.367c6.239,5.805 12.111,11.781 17.615,17.928l22.57,21.001l-1.101,-1.024l3.854,3.586l1.101,0.512l4.954,4.098c10.643,9.561 19.818,20.233 27.525,32.014c7.706,11.781 11.56,25.355 11.56,40.722l-0,62.492c-0,6.83 -1.468,13.404 -4.404,19.721c-2.936,6.318 -6.973,11.867 -12.111,16.648c-5.138,4.78 -11.101,8.537 -17.891,11.269c-6.789,2.732 -13.854,4.097 -21.193,4.097l-56.15,0c-15.781,0 -28.809,-4.78 -39.085,-14.342l-39.635,-35.856c-8.44,-4.781 -15.138,-11.184 -20.092,-19.209c-4.955,-8.025 -7.432,-16.989 -7.432,-26.892l0,-71.2l77.619,0l-0,3.074l15.413,13.83c-0.367,-3.415 -1.743,-7.086 -4.128,-11.013c-2.386,-3.927 -5.322,-7.854 -8.808,-11.781c-3.487,-3.927 -7.248,-7.769 -11.285,-11.525c-4.037,-3.757 -8.074,-7.513 -12.111,-11.269c-6.606,-5.464 -13.303,-11.355 -20.093,-17.672c-6.789,-6.318 -12.936,-13.062 -18.441,-20.233c-5.505,-7.172 -9.909,-14.855 -13.212,-23.051c-3.302,-8.195 -4.954,-17.245 -4.954,-27.148l0,-72.224c0,-15.026 5.413,-27.746 16.239,-38.161c10.827,-10.416 24.497,-15.624 41.012,-15.624l56.149,0c10.643,0 20.185,2.306 28.626,6.916c8.44,4.61 15.23,10.842 20.368,18.696l39.084,35.344c11.01,10.244 16.515,22.709 16.515,37.393l-0,69.151l-74.316,-0l-18.716,-16.904l-0,11.269Zm-58.352,-84.006c-0,-4.439 1.743,-8.11 5.23,-11.013c3.486,-2.902 7.431,-4.353 11.835,-4.353c7.34,-0 12.478,1.792 15.414,5.378c2.936,3.586 4.771,8.11 5.505,13.574c0.734,5.464 0.825,11.184 0.275,17.16c-0.551,5.976 -0.826,11.183 -0.826,15.623l55.599,-0l0,-60.443c0,-11.952 -4.495,-22.197 -13.487,-30.734c-8.991,-8.537 -19.909,-12.806 -32.754,-12.806l-56.149,0c-12.845,0 -23.763,4.269 -32.754,12.806c-8.992,8.537 -13.487,18.782 -13.487,30.734l-0,72.224c-0,10.586 2.294,20.318 6.881,29.197c4.587,8.879 10.367,17.074 17.34,24.587c6.973,7.513 14.405,14.599 22.295,21.258c7.89,6.659 15.322,13.232 22.295,19.721c6.972,6.488 12.753,12.976 17.34,19.464c4.587,6.488 6.881,13.489 6.881,21.002c0,3.415 0.184,7.598 0.551,12.549c0.367,4.952 0.183,9.733 -0.551,14.343c-0.734,4.61 -2.294,8.622 -4.679,12.037c-2.386,3.415 -6.514,5.122 -12.386,5.122c-7.34,0 -12.478,-1.878 -15.414,-5.634c-2.936,-3.756 -4.771,-8.281 -5.505,-13.574c-0.733,-5.293 -0.825,-10.928 -0.275,-16.904c0.551,-5.976 0.826,-11.354 0.826,-16.135l-55.599,-0l-0,60.955c-0,11.952 4.495,22.112 13.487,30.478c8.991,8.366 19.909,12.55 32.754,12.55l56.149,-0c12.478,-0 23.304,-4.269 32.479,-12.806c9.175,-8.537 13.762,-18.611 13.762,-30.222l0,-62.492c0,-10.586 -2.294,-20.318 -6.881,-29.197c-4.587,-8.878 -10.367,-17.074 -17.34,-24.587c-6.973,-7.513 -17.891,-17.757 -32.754,-30.734c-14.863,-12.976 -24.589,-22.708 -29.176,-29.197c-4.587,-6.488 -6.881,-13.318 -6.881,-20.489l-0,-39.442Z" style="fill-rule:nonzero;"/><path d="M503.201,54.158l47.341,43.027l0,364.195l-74.866,0l-22.57,-20.489l0,20.489l-74.866,0l-47.342,-43.027l-3.303,0l0,-367.269l78.169,0l0,3.074l19.267,17.416l0,-20.49l78.17,0l-0,3.074Zm-11.01,7.171l-56.15,0l0,155.718l-41.286,-0l-0,-155.718l-56.15,0l0,346.78l56.15,-0l-0,-139.327l41.286,0l0,139.327l56.15,-0l-0,-346.78Z" style="fill-rule:nonzero;"/><path d="M737.708,54.158l47.342,43.027l-0,364.195l-74.867,0l-22.57,-20.489l0,20.489l-74.866,0l-47.342,-43.027l-3.302,0l-0,-367.269l78.169,0l-0,3.074l19.267,17.416l-0,-20.49l78.169,0l-0,3.074Zm-11.01,7.171l-56.15,0l0,155.718l-41.286,-0l-0,-155.718l-56.15,0l0,346.78l56.15,-0l-0,-139.327l41.286,0l0,139.327l56.15,-0l-0,-346.78Z" style="fill-rule:nonzero;"/><path d="M972.215,54.158l47.342,43.027l-0,364.195l-74.866,0l-22.57,-20.489l-0,20.489l-74.866,0l-47.342,-43.027l-3.303,0l-0,-367.269l78.169,0l-0,3.074l19.267,17.416l-0,-20.49l78.169,0l-0,3.074Zm-11.01,7.171l-56.149,0l-0,155.718l-41.287,-0l0,-155.718l-56.15,0l0,346.78l56.15,-0l0,-139.327l41.287,0l-0,139.327l56.149,-0l0,-346.78Z" style="fill-rule:nonzero;"/></g><g><text x="1054.04px" y="413.647px" style="font-family:'Franchise-Regular', 'Franchise';font-size:549.536px;">!</text><path d="M1122.57,365.689c-0,-2.287 -1.857,-4.144 -4.144,-4.144l-37.521,0c-2.287,0 -4.143,1.857 -4.143,4.144l-0,39.097c-0,2.287 1.856,4.143 4.143,4.143l37.521,0c2.287,0 4.144,-1.856 4.144,-4.143l-0,-39.097Z" style="fill:#ff1749;"/></g><g><g><text x="226.685px" y="574.348px" style="font-family:'KimberleyWaterfall', 'Kimberley Waterfall';font-size:125.645px;">Mensajeria secreta al instante</text><path d="M509.6,525.113c4.025,-0 6.592,-4.351 10.868,-4.351" style="stroke:#000;stroke-width:2px;"/></g></g></svg>