<?xml version="1.0" encoding="UTF-8" standalone="no"?><!DOCTYPE svg PUBLIC "-//W3C//DTD SVG 1.1//EN" "http://www.w3.org/Graphics/SVG/1.1/DTD/svg11.dtd"><svg width="100%" height="100%" viewBox="0 0 1280 600" version="1.1" xmlns="http://www.w3.org/2000/svg" xmlns:xlink="http://www.w3.org/1999/xlink" xml:space="preserve" xmlns:serif="http://www.serif.com/" style="fill-rule:evenodd;clip-rule:evenodd;stroke-linecap:round;stroke-linejoin:round;stroke-miterlimit:1.5;"><g><path d="M268.693,269.807c0.367,-0 0.551,0.17 0.551,0.512l-0.551,-0.512Zm-3.303,-2.562l3.303,2.562l-0.55,-0l-2.753,-2.562Zm-45.139,-54.296c-0,5.122 1.651,10.245 4.954,15.367c6.239,5.805 12.111,11.781 17.615,17.928l22.57,21.001l-1.101,-1.024l3.854,3.586l1.101,0.512l4.954,4.098c10.643,9.561 19.818,20.233 27.525,32.014c7.706,11.781 11.56,25.355 11.56,40.722l-0,62.492c-0,6.83 -1.468,13.404 -4.404,19.721c-2.936,6.318 -6.973,11.867 -12.111,16.648c-5.138,4.78 -11.101,8.537 -17.891,11.269c-6.789,2.732 -13.854,4.097 -21.193,4.097l-56.15,0c-15.781,0 -28.809,-4.78 -39.085,-14.342l-39.635,-35.856c-8.44,-4.781 -15.138,-11.184 -20.092,-19.209c-4.955,-8.025 -7.432,-16.989 -7.432,-26.892l0,-71.2l77.619,0l-0,3.074l15.413,13.83c-0.367,-3.415 -1.743,-7.086 -4.128,-11.013c-2.386,-3.927 -5.322,-7.854 -8.808,-11.781c-3.487,-3.927 -7.248,-7.769 -11.285,-11.525c-4.037,-3.757 -8.074,-7.513 -12.111,-11.269c-6.606,-5.464 -13.303,-11.355 -20.093,-17.672c-6.789,-6.318 -12.936,-13.062 -18.441,-20.233c-5.505,-7.172 -9.909,-14.855 -13.212,-23.051c-3.302,-8.195 -4.954,-17.245 -4.954,-27.148l0,-72.224c0,-15.026 5.413,-27.746 16.239,-38.161c10.827,-10.416 24.497,-15.624 41.012,-15.624l56.149,0c10.643,0 20.185,2.306 28.626,6.916c8.44,4.61 15.23,10.842 20.368,18.696l39.084,35.344c11.01,10.244 16.515,22.709 16.515,37.393l-0,69.151l-74.316,-0l-18.716,-16.904l-0,11.269Zm-58.352,-84.006c-0,-4.439 1.743,-8.11 5.23,-11.013c3.486,-2.902 7.431,-4.353 11.835,-4.353c7.34,-0 12.478,1.792 15.414,5.378c2.936,3.586 4.771,8.11 5.505,13.574c0.734,5.464 0.825,11.184 0.275,17.16c-0.551,5.976 -0.826,11.183 -0.826,15.623l55.599,-0l0,-60.443c0,-11.952 -4.495,-22.197 -13.487,-30.734c-8.991,-8.537 -19.909,-12.806 -32.754,-12.806l-56.149,0c-12.845,0 -23.763,4.269 -32.754,12.806c-8.992,8.537 -13.487,18.782 -13.487,30.734l-0,72.224c-0,10.586 2.294,20.318 6.881,29.197c4.587,8.879 10.367,17.074 17.34,24.587c6.973,7.513 14.405,14.599 22.295,21.258c7.89,6.659 15.322,13.232 22.295,19.721c6.972,6.488 12.753,12.976 17.34,19.464c4.587,6.488 6.881,13.489 6.881,21.002c0,3.415 0.184,7.598 0.551,12.549c0.367,4.952 0.183,9.733 -0.551,14.343c-0.734,4.61 -2.294,8.622 -4.679,12.037c-2.386,3.415 -6.514,5.122 -12.386,5.122c-7.34,0 -12.478,-1.878 -15.414,-5.634c-2.936,-3.756 -4.771,-8.281 -5.505,-13.574c-0.733,-5.293 -0.825,-10.928 -0.275,-16.904c0.551,-5.976 0.826,-11.354 0.826,-16.135l-55.599,-0l-0,60.955c-0,11.952 4.495,22.112 13.487,30.478c8.991,8.366 19.909,12.55 32.754,12.55l56.149,-0c12.478,-0 23.304,-4.269 32.479,-12.806c9.175,-8.537 13.762,-18.611 13.762,-30.222l0,-62.492c0,-10.586 -2.294,-20.318 -6.881,-29.197c-4.587,-8.878 -10.367,-17.074 -17.34,-24.587c-6.973,-7.513 -17.891,-17.757 -32.754,-30.734c-14.863,-12.976 -24.589,-22.708 -29.176,-29.197c-4.587,-6.488 -6.881,-13.318 -6.881,-20.489l-0,-39.442Z" style="fill-rule:nonzero;"/><path d="M503.201,54.158l47.341,43.027l0,364.195l-74.866,0l-22.57,-20.489l0,20.489l-74.866,0l-47.342,-43.027l-3.303,0l0,-367.269l78.169,0l0,3.074l19.267,17.416l0,-20.49l78.17,0l-0,3.074Zm-11.01,7.171l-56.15,0l0,155.718l-41.286,-0l-0,-155.718l-56.15,0l0,346.78l56.15,-0l-0,-139.327l41.286,0l0,139.327l56.15,-0l-0,-346.78Z" style="fill-rule:nonzero;"/><path d="M737.708,54.158l47.342,43.027l-0,364.195l-74.867,0l-22.57,-20.489l0,20.489l-74.866,0l-47.342,-43.027l-3.302,0l-0,-367.269l78.169,0l-0,3.074l19.267,17.416l-0,-20.49l78.169,0l-0,3.074Zm-11.01,7.171l-56.15,0l0,155.718l-41.286,-0l-0,-155.718l-56.15,0l0,346.78l56.15,-0l-0,-139.327l41.286,0l0,139.327l56.15,-0l-0,-346.78Z" style="fill-rule:nonzero;"/><path d="M972.215,54.158l47.342,43.027l-0,364.195l-74.866,0l-22.57,-20.489l-0,20.489l-74.866,0l-47.342,-43.027l-3.303,0l-0,-367.269l78.169,0l-0,3.074l19.267,17.416l-0,-20.49l78.169,0l-0,3.074Zm-11.01,7.171l-56.149,0l-0,155.718l-41.287,-0l0,-155.718l-56.15,0l0,346.78l56.15,-0l0,-139.327l41.287,0l-0,139.327l56.149,-0l0,-346.78Z" style="fill-rule:nonzero;"/></g><g><path d="M1138.12,30.62l-0,3.297l47.26,46.161l-0,302.795l-13.739,-0l13.739,13.189l-0,74.736l-74.188,0l-47.26,-46.161l-3.297,0l-0,-78.034l13.189,0l-9.892,-9.891l-3.297,-0l-0,-306.092l77.485,0Zm-66.494,10.991l-0,284.11l55.503,-0l-0,-284.11l-55.503,-0Zm-0,315.983l-0,56.053l55.503,-0l-0,-56.053l-55.503,0Z" style="fill-rule:nonzero;"/><path d="M1122.57,365.689c-0,-2.287 -1.857,-4.144 -4.144,-4.144l-37.521,0c-2.287,0 -4.143,1.857 -4.143,4.144l-0,39.097c-0,2.287 1.856,4.143 4.143,4.143l37.521,0c2.287,0 4.144,-1.856 4.144,-4.143l-0,-39.097Z" style="fill:#ff1749;"/></g><g><g><g><path d="M291.593,579.502c-0.082,-0.041 -0.123,-0.123 -0.123,-0.246c0,-0.082 0.021,-0.184 0.062,-0.306c0.041,-0.246 0.245,-0.655 0.613,-1.227c0.368,-0.573 0.941,-1.371 1.718,-2.393c0.777,-1.023 1.82,-2.372 3.129,-4.049c6.953,-8.957 15.91,-20.266 26.871,-33.927c6.422,-8.016 11.125,-13.947 14.111,-17.791c2.986,-3.845 5.542,-7.24 7.669,-10.184c6.298,-8.63 10.163,-15.154 11.595,-19.571c0.409,-1.268 0.613,-2.352 0.613,-3.252c0,-0.777 -0.163,-1.411 -0.491,-1.901c-0.695,-1.064 -1.462,-1.606 -2.3,-1.626c-0.839,-0.021 -1.319,-0.031 -1.442,-0.031c-1.472,0 -3.108,0.245 -4.908,0.736c-6.912,1.963 -15.358,6.197 -25.337,12.7c-9.98,6.503 -20.328,14.458 -31.044,23.865c-3.272,2.945 -6.687,6.227 -10.245,9.847c-3.558,3.619 -6.299,6.615 -8.221,8.987c-0.409,0.491 -0.736,0.859 -0.982,1.105c-0.245,0.245 -0.419,0.378 -0.521,0.398c-0.102,0.021 -0.174,0.031 -0.215,0.031c-0.163,0 -0.327,-0.041 -0.491,-0.123c-0.327,-0.122 -0.49,-0.347 -0.49,-0.674c-0,-0.123 0.02,-0.246 0.061,-0.369c0.164,-0.531 0.695,-1.411 1.595,-2.638c1.718,-2.454 4.039,-5.91 6.963,-10.368c2.925,-4.458 5.123,-7.893 6.595,-10.307c3.845,-6.421 5.767,-10.347 5.767,-11.779c0,-0.286 -0.02,-0.45 -0.061,-0.491c-0.041,-0.04 -0.082,-0.061 -0.123,-0.061c-0.082,0 -0.225,0.021 -0.429,0.061c-2.618,0.737 -6.871,3.405 -12.761,8.007c-5.89,4.601 -12.362,10.235 -19.417,16.902c-7.055,6.666 -13.692,13.476 -19.908,20.429c-0.614,0.736 -1.319,1.616 -2.117,2.638c-0.797,1.023 -1.483,1.963 -2.055,2.822c-0.9,1.35 -1.616,2.372 -2.147,3.068c-0.532,0.695 -0.931,1.165 -1.197,1.411c-0.266,0.245 -0.521,0.368 -0.767,0.368c-0.736,-0.041 -1.104,-0.368 -1.104,-0.982l0,-0.061c0,-0.695 1.104,-2.434 3.313,-5.215c1.023,-1.227 2.638,-3.589 4.847,-7.086c2.208,-3.497 5.419,-8.783 9.632,-15.859c10.266,-17.014 16.032,-28.282 17.3,-33.804c0.328,-1.39 0.491,-2.556 0.491,-3.497c0,-1.472 -0.368,-2.494 -1.104,-3.067c-0.777,-0.573 -1.738,-0.859 -2.884,-0.859c-0.695,0 -1.472,0.102 -2.331,0.307c-2.209,0.572 -4.356,1.39 -6.442,2.454c-6.666,3.272 -12.822,7.648 -18.466,13.129c-3.354,3.231 -5.481,5.787 -6.38,7.668c-0.205,0.409 -0.348,0.726 -0.43,0.951c-0.082,0.225 -0.123,0.399 -0.123,0.522c0,0.163 0.041,0.307 0.123,0.429c0.082,0.164 0.143,0.307 0.184,0.43c0.041,0.122 0.062,0.245 0.062,0.368l-0.062,0.245c-0.082,0.409 -0.327,0.614 -0.736,0.614c-0.409,-0 -0.798,-0.184 -1.166,-0.552c-0.286,-0.368 -0.429,-0.818 -0.429,-1.35c-0,-1.391 0.961,-3.333 2.883,-5.828c2.863,-3.559 6.483,-7.025 10.859,-10.399c4.377,-3.374 8.753,-6.125 13.129,-8.252c2.822,-1.349 5.021,-2.127 6.595,-2.331c1.575,-0.205 2.567,-0.307 2.976,-0.307c2.045,0 3.619,0.614 4.724,1.841c0.736,0.818 1.104,2.065 1.104,3.742c0,1.35 -0.245,2.965 -0.736,4.847c-1.35,5.603 -7.546,17.525 -18.589,35.767l-4.049,6.748c-0.573,0.982 -0.88,1.493 -0.921,1.534c0.041,0 0.532,-0.491 1.473,-1.472c1.022,-0.982 2.29,-2.25 3.804,-3.804c9.652,-9.775 18.435,-17.853 26.349,-24.233c7.915,-6.381 13.405,-9.816 16.473,-10.307c0.286,-0.041 0.511,-0.061 0.675,-0.061c0.204,-0 0.347,0.02 0.429,0.061c0.246,0.041 0.511,0.225 0.798,0.552c0.327,0.245 0.521,0.46 0.583,0.644c0.061,0.184 0.092,0.419 0.092,0.706l-0,0.491c-0,0.327 -0.041,0.715 -0.123,1.165c-0.082,0.45 -0.184,0.859 -0.307,1.227c-1.309,3.436 -4.499,9.121 -9.571,17.056c-0.654,0.981 -1.196,1.82 -1.625,2.515c-0.43,0.695 -0.644,1.063 -0.644,1.104c0.04,0 0.306,-0.225 0.797,-0.675c0.491,-0.49 1.125,-1.104 1.902,-1.84c5.644,-5.522 12.209,-11.227 19.693,-17.117c7.485,-5.889 14.499,-10.859 21.043,-14.908c8.344,-5.194 15.195,-8.63 20.553,-10.307c2.495,-0.818 4.386,-1.257 5.674,-1.319c1.289,-0.061 2.015,-0.092 2.178,-0.092c2.291,0 4.029,0.655 5.215,1.963c0.695,0.737 1.043,1.78 1.043,3.129c0,1.186 -0.266,2.618 -0.797,4.295c-1.555,4.908 -5.992,12.27 -13.313,22.086c-1.309,1.799 -2.618,3.548 -3.927,5.245c-1.309,1.698 -3.078,3.957 -5.307,6.779c-2.229,2.823 -5.409,6.831 -9.539,12.025c-7.403,9.243 -13.201,16.513 -17.393,21.81c-4.192,5.296 -7.741,9.826 -10.644,13.589c-1.391,1.84 -2.618,3.425 -3.681,4.755c-1.064,1.329 -1.677,2.096 -1.841,2.3c-0.286,0.287 -0.562,0.46 -0.828,0.522c-0.266,0.061 -0.46,0.092 -0.583,0.092c-0.205,-0 -0.368,-0.062 -0.491,-0.184Z" style="fill:#fff;fill-rule:nonzero;"/><path d="M340.673,542.569c-0.245,-0.654 -0.368,-1.37 -0.368,-2.147c0,-0.287 0.021,-0.573 0.061,-0.859c0.082,-1.104 0.328,-2.066 0.737,-2.884c1.145,-2.126 2.72,-3.701 4.724,-4.724c1.186,-0.49 2.188,-0.736 3.006,-0.736c0.859,0 1.534,0.246 2.024,0.736c0.409,0.369 0.614,0.818 0.614,1.35c-0,0.818 -0.471,1.8 -1.411,2.945c-0.859,0.982 -1.923,1.851 -3.19,2.607c-1.268,0.757 -2.414,1.217 -3.436,1.381l-1.166,0.122l0.123,0.737c0.245,1.717 1.35,2.576 3.313,2.576c1.472,0 3.436,-0.491 5.89,-1.472c3.64,-1.391 6.809,-3.17 9.509,-5.338c0.736,-0.531 1.288,-0.797 1.656,-0.797c0.164,-0 0.287,0.061 0.368,0.184c0.082,0.082 0.123,0.184 0.123,0.307c0,0.368 -0.368,0.899 -1.104,1.595c-2.7,2.29 -5.829,4.233 -9.387,5.828c-1.309,0.532 -2.577,0.951 -3.804,1.258c-1.227,0.306 -2.229,0.46 -3.006,0.46c-0.695,-0 -1.37,-0.082 -2.024,-0.246c-1.391,-0.327 -2.475,-1.288 -3.252,-2.883Zm4.172,-4.969c1.472,-0.737 2.638,-1.555 3.497,-2.454c0.613,-0.655 0.92,-1.207 0.92,-1.657c0,-0.245 -0.163,-0.368 -0.491,-0.368c-0.286,0 -0.674,0.082 -1.165,0.245c-0.736,0.287 -1.493,0.737 -2.27,1.35c-0.777,0.614 -1.411,1.309 -1.902,2.086c-0.45,0.614 -0.675,1.043 -0.675,1.288c0,0.123 0.102,0.184 0.307,0.184c0.286,0 0.879,-0.224 1.779,-0.674Z" style="fill:#fff;fill-rule:nonzero;"/><path d="M357.176,544.348c-0.041,-0.123 -0.061,-0.266 -0.061,-0.429c0,-0.164 0.02,-0.328 0.061,-0.491c0.123,-0.409 0.45,-1.012 0.982,-1.81c0.532,-0.798 1.35,-1.912 2.454,-3.344c1.186,-1.636 2.117,-2.893 2.791,-3.773c0.675,-0.879 1.187,-1.503 1.534,-1.871c0.348,-0.368 0.624,-0.562 0.828,-0.583c0.205,-0.02 0.409,0.052 0.614,0.215c0.286,0.123 0.429,0.327 0.429,0.614c0,0.286 -0.204,0.736 -0.613,1.349c-0.409,0.614 -1.064,1.493 -1.963,2.638c-0.737,0.941 -1.35,1.739 -1.841,2.393c-0.491,0.654 -0.736,1.002 -0.736,1.043c0.041,0 0.245,-0.102 0.613,-0.307c0.369,-0.204 0.798,-0.491 1.289,-0.859c2.863,-1.881 4.662,-2.822 5.399,-2.822l1.165,0c1.35,0 2.475,0.9 3.374,2.7c0.532,1.022 0.982,1.677 1.35,1.963c0.368,0.286 0.818,0.429 1.35,0.429c0.204,0 0.429,-0.02 0.675,-0.061c0.859,-0.082 2.055,-0.429 3.589,-1.043c1.533,-0.613 3.026,-1.288 4.478,-2.025c1.452,-0.736 2.485,-1.349 3.098,-1.84c0.328,-0.245 0.614,-0.368 0.859,-0.368c0.205,-0 0.368,0.082 0.491,0.245c0.123,0.123 0.184,0.266 0.184,0.43c0,0.204 -0.143,0.491 -0.429,0.859c-0.941,0.981 -2.454,1.983 -4.54,3.006c-2.086,1.022 -4.152,1.799 -6.197,2.331c-0.94,0.286 -1.779,0.43 -2.515,0.43c-0.613,-0 -1.125,-0.103 -1.534,-0.307c-0.94,-0.409 -1.84,-1.452 -2.699,-3.129c-0.245,-0.45 -0.44,-0.777 -0.583,-0.982c-0.143,-0.204 -0.286,-0.347 -0.429,-0.429c-0.143,-0.082 -0.338,-0.123 -0.583,-0.123l-0.184,0c-0.614,0 -1.595,0.368 -2.945,1.104c-1.472,0.818 -3.681,2.25 -6.626,4.295c-1.022,0.736 -1.799,1.104 -2.331,1.104c-0.409,0 -0.675,-0.184 -0.798,-0.552Z" style="fill:#fff;fill-rule:nonzero;"/><path d="M383.741,551.097c0.859,-0.982 2.454,-2.27 4.785,-3.865l2.761,-1.902l-0.245,-0.798c-0.082,-0.245 -0.236,-0.644 -0.461,-1.196c-0.224,-0.552 -0.48,-1.115 -0.766,-1.687c-0.9,-1.718 -1.371,-2.894 -1.411,-3.528c-0.041,-0.634 -0.062,-1.012 -0.062,-1.135c0,-0.981 0.286,-2.024 0.859,-3.129c0.286,-0.531 0.787,-1.217 1.503,-2.055c0.716,-0.838 1.432,-1.585 2.147,-2.239c0.716,-0.655 1.258,-1.043 1.626,-1.166l0.307,0c0.736,0 1.104,0.511 1.104,1.534c0,0.9 -0.266,1.35 -0.797,1.35c-0.123,-0 -0.266,-0.021 -0.43,-0.062c-0.082,-0.041 -0.163,-0.061 -0.245,-0.061c-0.082,-0 -0.164,0.02 -0.246,0.061c-0.122,0.041 -0.286,0.143 -0.49,0.307c-0.205,0.164 -0.45,0.409 -0.737,0.736c-1.758,1.841 -2.638,3.456 -2.638,4.847c0,0.286 0.041,0.572 0.123,0.859c0.082,0.286 0.235,0.685 0.46,1.196c0.225,0.511 0.481,1.033 0.767,1.564c0.245,0.532 0.481,1.054 0.706,1.565c0.225,0.511 0.378,0.889 0.46,1.135l0.245,0.797l3.006,-1.779c1.923,-1.104 4.008,-2.249 6.258,-3.435c2.249,-1.186 4.008,-2.066 5.276,-2.638c0.532,-0.205 0.941,-0.307 1.227,-0.307c0.286,-0 0.47,0.102 0.552,0.307c0.041,0.081 0.062,0.163 0.062,0.245c-0,0.368 -0.348,0.798 -1.043,1.288c-2.209,1.391 -4.602,2.761 -7.178,4.111c-1.841,0.941 -3.62,1.922 -5.338,2.945l-2.576,1.472l-0.123,1.043c-0.205,1.35 -0.777,2.658 -1.718,3.926c-0.941,1.268 -2.045,2.229 -3.313,2.884c-0.9,0.491 -1.922,0.736 -3.067,0.736c-1.146,-0.123 -1.81,-0.419 -1.994,-0.89c-0.184,-0.47 -0.276,-0.807 -0.276,-1.012c-0,-0.613 0.306,-1.288 0.92,-2.024Zm3.558,1.472c1.268,-0.736 2.27,-1.759 3.006,-3.067c0.164,-0.328 0.297,-0.604 0.399,-0.829c0.102,-0.225 0.154,-0.358 0.154,-0.398l-0.062,-0c-0.082,-0 -0.368,0.163 -0.859,0.49c-0.531,0.368 -1.145,0.808 -1.84,1.319c-0.696,0.512 -1.329,1.013 -1.902,1.503c-0.736,0.614 -1.104,1.043 -1.104,1.289l-0,0.061c0.041,0.164 0.184,0.246 0.429,0.246c0.082,-0 0.184,-0.021 0.307,-0.062c0.45,-0.123 0.941,-0.307 1.472,-0.552Z" style="fill:#fff;fill-rule:nonzero;"/><path d="M418.588,542.14c-0.082,-0.778 -0.123,-1.575 -0.123,-2.393c0,-0.777 -0.02,-1.442 -0.061,-1.994c-0.041,-0.552 -0.082,-0.828 -0.123,-0.828c-0.082,-0 -0.45,0.225 -1.104,0.675c-0.655,0.45 -1.432,1.002 -2.332,1.656c-2.863,2.045 -4.969,3.497 -6.319,4.356c-1.677,0.982 -2.944,1.472 -3.803,1.472c-0.614,0 -1.023,-0.245 -1.227,-0.736c-0.123,-0.245 -0.184,-0.511 -0.184,-0.797c-0,-1.105 0.736,-2.598 2.208,-4.479c0.818,-0.941 1.728,-1.902 2.73,-2.883c1.002,-0.982 1.892,-1.759 2.669,-2.332c2.577,-1.718 4.806,-2.576 6.687,-2.576c1.227,-0 2.291,0.368 3.19,1.104c0.9,0.859 1.371,1.646 1.411,2.362c0.041,0.716 0.062,1.094 0.062,1.135c-0,1.227 -0.389,2.229 -1.166,3.006c-0.204,0.204 -0.348,0.378 -0.429,0.521c-0.082,0.144 -0.143,0.328 -0.184,0.553c-0.041,0.225 -0.062,0.542 -0.062,0.951c0,0.368 0.021,0.715 0.062,1.042c0.327,2.209 0.899,3.385 1.717,3.528c0.818,0.143 1.371,0.215 1.657,0.215c1.145,-0 2.413,-0.327 3.804,-0.982c1.881,-0.818 4.192,-2.27 6.932,-4.356c0.9,-0.695 1.779,-1.349 2.638,-1.963c1.064,-0.736 2.045,-1.452 2.945,-2.147c0.204,-0.082 0.389,-0.123 0.552,-0.123c0.205,0 0.389,0.062 0.552,0.184c0.246,0.164 0.368,0.389 0.368,0.675c0,0.123 -0.02,0.246 -0.061,0.368l-1.166,0.982l-0.981,0.736c-0.655,0.573 -1.258,1.074 -1.81,1.503l-2.178,1.687c-2.577,1.963 -4.806,3.374 -6.687,4.233c-1.718,0.777 -3.333,1.166 -4.847,1.166c-0.654,0 -1.268,-0.061 -1.84,-0.184c-2.045,-0.409 -3.211,-2.188 -3.497,-5.337Zm-11.105,-0.307c0.491,-0.287 1.248,-0.777 2.27,-1.473c1.023,-0.695 2.066,-1.431 3.129,-2.208c1.104,-0.777 2.086,-1.462 2.945,-2.055c0.859,-0.594 1.432,-0.951 1.718,-1.074c0.368,-0.164 0.695,-0.245 0.981,-0.245c0.491,-0 0.941,0.184 1.35,0.552c0.123,0.122 0.205,0.184 0.246,0.184l0.061,-0c0.041,-0 0.061,-0.123 0.061,-0.368c0,-0.164 -0.051,-0.348 -0.153,-0.553c-0.102,-0.204 -0.235,-0.368 -0.399,-0.49c-0.613,-0.491 -1.35,-0.737 -2.209,-0.737c-1.554,0 -3.537,0.859 -5.951,2.577c-0.695,0.532 -1.492,1.248 -2.392,2.147c-0.9,0.9 -1.677,1.759 -2.331,2.577c-0.45,0.573 -0.767,1.012 -0.951,1.319c-0.184,0.307 -0.276,0.522 -0.276,0.644c-0,0.082 0.04,0.123 0.122,0.123c0.246,0 0.839,-0.307 1.779,-0.92Z" style="fill:#fff;fill-rule:nonzero;"/><path d="M443.496,525.636c-0.286,-0.327 -0.43,-0.695 -0.43,-1.104c0,-0.409 0.144,-0.695 0.43,-0.859c0.327,-0.163 0.695,-0.245 1.104,-0.245l0.246,-0c0.531,0.041 0.879,0.184 1.043,0.429l-0,0.062c0.122,0.163 0.184,0.286 0.184,0.368l-0,0.061c-0,0.123 -0.041,0.225 -0.123,0.307c-0.082,0.163 -0.246,0.388 -0.491,0.675c-0.409,0.49 -0.797,0.736 -1.166,0.736c-0.286,-0 -0.552,-0.143 -0.797,-0.43Zm-38.835,57.117c-1.472,-0.695 -2.219,-1.493 -2.239,-2.392c-0.02,-0.9 -0.031,-1.411 -0.031,-1.534c0,-1.636 0.634,-3.518 1.902,-5.644c3.109,-5.154 8.875,-10.532 17.301,-16.135c1.391,-0.9 3.027,-1.943 4.908,-3.129c1.881,-1.186 3.63,-2.28 5.245,-3.283c1.616,-1.002 2.69,-1.646 3.221,-1.932c0.205,-0.082 0.399,-0.235 0.583,-0.46c0.184,-0.225 0.409,-0.583 0.675,-1.074c0.266,-0.491 0.603,-1.206 1.012,-2.147c1.064,-2.209 1.974,-4.254 2.73,-6.135c0.757,-1.881 1.217,-3.231 1.381,-4.049c0.204,-1.268 0.654,-1.902 1.349,-1.902l0.246,0c0.491,0.123 0.736,0.491 0.736,1.104c-0,0.328 -0.061,0.696 -0.184,1.105c-0.246,0.859 -0.655,2.024 -1.227,3.497c-0.573,1.472 -1.186,2.965 -1.841,4.478c-0.368,0.818 -0.674,1.513 -0.92,2.086c-0.245,0.573 -0.368,0.879 -0.368,0.92c0.041,0 0.123,-0.02 0.245,-0.061c0.164,-0.082 0.389,-0.205 0.675,-0.368c2.986,-1.759 6.156,-3.538 9.51,-5.338c3.353,-1.799 5.828,-3.088 7.423,-3.865c0.491,-0.204 0.879,-0.306 1.166,-0.306c0.286,-0 0.47,0.102 0.552,0.306c0.041,0.082 0.061,0.164 0.061,0.246c0,0.327 -0.286,0.695 -0.859,1.104c-2.945,1.759 -6.196,3.64 -9.755,5.644c-2.208,1.227 -4.314,2.413 -6.319,3.559l-4.601,2.638l-1.165,2.27c-4.868,8.875 -9.96,16.339 -15.277,22.392c-3.926,4.254 -7.566,7.015 -10.92,8.283c-1.104,0.368 -2.106,0.552 -3.006,0.552c-0.818,-0 -1.554,-0.143 -2.209,-0.43Zm4.295,-1.963c0.859,-0.286 1.626,-0.624 2.3,-1.012c0.675,-0.389 1.503,-0.951 2.485,-1.687c5.726,-4.418 11.943,-12.332 18.651,-23.743c0.368,-0.654 0.664,-1.196 0.889,-1.626c0.225,-0.429 0.338,-0.664 0.338,-0.705c-0.123,-0 -0.655,0.286 -1.596,0.859c-0.981,0.572 -2.198,1.319 -3.65,2.239c-1.452,0.92 -2.894,1.841 -4.325,2.761c-1.432,0.92 -2.638,1.728 -3.62,2.423c-7.198,5.113 -12.127,9.959 -14.785,14.54c-0.164,0.368 -0.338,0.798 -0.522,1.288c-0.184,0.491 -0.337,0.921 -0.46,1.289c-0.122,0.531 -0.184,1.022 -0.184,1.472c0,0.818 0.246,1.432 0.736,1.841c0.409,0.327 0.941,0.49 1.596,0.49c0.613,0 1.329,-0.143 2.147,-0.429Z" style="fill:#fff;fill-rule:nonzero;"/><path d="M456.686,542.569c-0.245,-0.654 -0.368,-1.37 -0.368,-2.147c0,-0.287 0.02,-0.573 0.061,-0.859c0.082,-1.104 0.328,-2.066 0.737,-2.884c1.145,-2.126 2.719,-3.701 4.724,-4.724c1.186,-0.49 2.188,-0.736 3.006,-0.736c0.859,0 1.533,0.246 2.024,0.736c0.409,0.369 0.614,0.818 0.614,1.35c-0,0.818 -0.471,1.8 -1.411,2.945c-0.859,0.982 -1.923,1.851 -3.191,2.607c-1.267,0.757 -2.413,1.217 -3.435,1.381l-1.166,0.122l0.123,0.737c0.245,1.717 1.35,2.576 3.313,2.576c1.472,0 3.435,-0.491 5.889,-1.472c3.641,-1.391 6.81,-3.17 9.51,-5.338c0.736,-0.531 1.288,-0.797 1.656,-0.797c0.164,-0 0.286,0.061 0.368,0.184c0.082,0.082 0.123,0.184 0.123,0.307c-0,0.368 -0.368,0.899 -1.104,1.595c-2.7,2.29 -5.829,4.233 -9.387,5.828c-1.309,0.532 -2.577,0.951 -3.804,1.258c-1.227,0.306 -2.229,0.46 -3.006,0.46c-0.695,-0 -1.37,-0.082 -2.024,-0.246c-1.391,-0.327 -2.475,-1.288 -3.252,-2.883Zm4.172,-4.969c1.472,-0.737 2.638,-1.555 3.497,-2.454c0.613,-0.655 0.92,-1.207 0.92,-1.657c0,-0.245 -0.163,-0.368 -0.491,-0.368c-0.286,0 -0.675,0.082 -1.165,0.245c-0.737,0.287 -1.493,0.737 -2.27,1.35c-0.777,0.614 -1.411,1.309 -1.902,2.086c-0.45,0.614 -0.675,1.043 -0.675,1.288c0,0.123 0.102,0.184 0.307,0.184c0.286,0 0.879,-0.224 1.779,-0.674Z" style="fill:#fff;fill-rule:nonzero;"/><path d="M473.312,544.041c0.409,-0.859 1.258,-2.249 2.546,-4.171c1.288,-1.923 2.566,-3.743 3.834,-5.461c1.268,-1.717 2.107,-2.74 2.516,-3.067c0.204,-0.164 0.388,-0.245 0.552,-0.245c0.163,-0 0.348,0.04 0.552,0.122c0.245,0.082 0.399,0.184 0.46,0.307c0.062,0.123 0.092,0.368 0.092,0.736c0,0.491 -0.102,0.91 -0.307,1.258c-0.204,0.347 -0.449,0.521 -0.736,0.521c-0.122,0 -0.296,0.103 -0.521,0.307c-0.225,0.205 -0.44,0.45 -0.644,0.736c-0.573,0.777 -0.87,1.197 -0.89,1.258c-0.02,0.061 -0.031,0.112 -0.031,0.153l0.062,0c0.041,0 0.184,-0.081 0.429,-0.245c0.573,-0.409 1.227,-0.614 1.963,-0.614c0.818,0 1.739,0.225 2.761,0.675c2.536,1.064 5.153,1.595 7.853,1.595c0.736,0 1.472,-0.041 2.208,-0.122c1.718,-0.123 3.293,-0.614 4.724,-1.473c0.45,-0.245 0.839,-0.368 1.166,-0.368c0.245,0 0.43,0.102 0.552,0.307c0.082,0.123 0.123,0.245 0.123,0.368c-0,0.327 -0.307,0.757 -0.92,1.288c-1.677,1.186 -3.497,1.82 -5.46,1.902c-0.737,0.082 -1.473,0.123 -2.209,0.123c-3.19,-0 -6.319,-0.654 -9.387,-1.963c-0.531,-0.246 -0.961,-0.368 -1.288,-0.368c-0.164,-0 -0.286,0.02 -0.368,0.061c-0.327,0.082 -1.094,0.695 -2.301,1.84c-1.206,1.146 -2.587,2.557 -4.141,4.234c-0.695,0.777 -1.206,1.288 -1.534,1.533c-0.327,0.246 -0.634,0.368 -0.92,0.368c-0.45,0 -0.716,-0.112 -0.797,-0.337c-0.082,-0.225 -0.123,-0.399 -0.123,-0.521c-0,-0.246 0.061,-0.491 0.184,-0.737Z" style="fill:#fff;fill-rule:nonzero;"/><path d="M499.263,539.931c0.286,-0.941 0.818,-1.984 1.595,-3.129c0.777,-1.104 1.636,-2.117 2.577,-3.037c0.941,-0.92 1.574,-1.38 1.902,-1.38c0.327,-0 0.572,0.112 0.736,0.337c0.163,0.225 0.245,0.44 0.245,0.644c0,0.082 -0.02,0.185 -0.061,0.307c-0.041,0.123 -0.245,0.399 -0.614,0.828c-0.368,0.43 -0.797,0.91 -1.288,1.442c-1.227,1.186 -2.086,2.27 -2.577,3.252c-0.572,1.186 -0.859,2.167 -0.859,2.945l0,0.368c0.123,0.613 0.655,0.92 1.596,0.92c0.368,-0 0.797,-0.041 1.288,-0.123c1.391,-0.286 3.292,-0.981 5.705,-2.086c2.005,-0.9 3.886,-1.779 5.645,-2.638c1.758,-0.859 3.149,-1.574 4.171,-2.147c0.696,-0.327 1.227,-0.491 1.596,-0.491c0.286,0 0.49,0.082 0.613,0.246c0.041,0.081 0.061,0.163 0.061,0.245c0,0.409 -0.449,0.92 -1.349,1.534c-0.491,0.327 -1.013,0.634 -1.565,0.92c-0.552,0.286 -1.38,0.716 -2.484,1.288l-1.595,0.798c-4.908,2.536 -8.385,3.988 -10.43,4.356c-0.532,0.082 -1.043,0.122 -1.534,0.122c-1.227,0 -2.188,-0.347 -2.883,-1.043c-0.573,-0.572 -0.859,-1.349 -0.859,-2.331c-0,-0.613 0.123,-1.329 0.368,-2.147Zm12.086,-14.724c-0.082,-0.082 -0.123,-0.205 -0.123,-0.368l0,-0.736c0.041,-0.205 0.123,-0.348 0.246,-0.43c0.204,-0.204 0.45,-0.307 0.736,-0.307l0.184,0c0.368,0.082 0.634,0.266 0.797,0.553c0.082,0.163 0.123,0.306 0.123,0.429l0,0.123c0,0.122 -0.082,0.266 -0.245,0.429c-0.246,0.246 -0.491,0.389 -0.736,0.43c-0.246,0.041 -0.409,0.061 -0.491,0.061c-0.205,-0 -0.368,-0.061 -0.491,-0.184Z" style="fill:#fff;fill-rule:nonzero;"/><path d="M530.122,542.14c-0.082,-0.778 -0.123,-1.575 -0.123,-2.393c0,-0.777 -0.02,-1.442 -0.061,-1.994c-0.041,-0.552 -0.082,-0.828 -0.123,-0.828c-0.081,-0 -0.45,0.225 -1.104,0.675c-0.654,0.45 -1.431,1.002 -2.331,1.656c-2.863,2.045 -4.97,3.497 -6.319,4.356c-1.677,0.982 -2.945,1.472 -3.804,1.472c-0.614,0 -1.023,-0.245 -1.227,-0.736c-0.123,-0.245 -0.184,-0.511 -0.184,-0.797c-0,-1.105 0.736,-2.598 2.209,-4.479c0.818,-0.941 1.728,-1.902 2.73,-2.883c1.002,-0.982 1.891,-1.759 2.668,-2.332c2.577,-1.718 4.806,-2.576 6.688,-2.576c1.227,-0 2.29,0.368 3.19,1.104c0.9,0.859 1.37,1.646 1.411,2.362c0.041,0.716 0.061,1.094 0.061,1.135c0,1.227 -0.388,2.229 -1.166,3.006c-0.204,0.204 -0.347,0.378 -0.429,0.521c-0.082,0.144 -0.143,0.328 -0.184,0.553c-0.041,0.225 -0.061,0.542 -0.061,0.951c-0,0.368 0.02,0.715 0.061,1.042c0.327,2.209 0.9,3.385 1.718,3.528c0.818,0.143 1.37,0.215 1.656,0.215c1.145,-0 2.413,-0.327 3.804,-0.982c1.881,-0.818 4.192,-2.27 6.932,-4.356c0.9,-0.695 1.78,-1.349 2.639,-1.963c1.063,-0.736 2.045,-1.452 2.944,-2.147c0.205,-0.082 0.389,-0.123 0.552,-0.123c0.205,0 0.389,0.062 0.553,0.184c0.245,0.164 0.368,0.389 0.368,0.675c-0,0.123 -0.021,0.246 -0.062,0.368l-1.165,0.982l-0.982,0.736c-0.654,0.573 -1.258,1.074 -1.81,1.503l-2.178,1.687c-2.576,1.963 -4.805,3.374 -6.687,4.233c-1.718,0.777 -3.333,1.166 -4.846,1.166c-0.655,0 -1.268,-0.061 -1.841,-0.184c-2.045,-0.409 -3.211,-2.188 -3.497,-5.337Zm-11.104,-0.307c0.491,-0.287 1.247,-0.777 2.27,-1.473c1.022,-0.695 2.065,-1.431 3.129,-2.208c1.104,-0.777 2.085,-1.462 2.944,-2.055c0.859,-0.594 1.432,-0.951 1.718,-1.074c0.368,-0.164 0.695,-0.245 0.982,-0.245c0.491,-0 0.94,0.184 1.349,0.552c0.123,0.122 0.205,0.184 0.246,0.184l0.061,-0c0.041,-0 0.062,-0.123 0.062,-0.368c-0,-0.164 -0.052,-0.348 -0.154,-0.553c-0.102,-0.204 -0.235,-0.368 -0.399,-0.49c-0.613,-0.491 -1.349,-0.737 -2.208,-0.737c-1.554,0 -3.538,0.859 -5.951,2.577c-0.695,0.532 -1.493,1.248 -2.393,2.147c-0.9,0.9 -1.677,1.759 -2.331,2.577c-0.45,0.573 -0.767,1.012 -0.951,1.319c-0.184,0.307 -0.276,0.522 -0.276,0.644c-0,0.082 0.041,0.123 0.123,0.123c0.245,0 0.838,-0.307 1.779,-0.92Z" style="fill:#fff;fill-rule:nonzero;"/><path d="M578.036,551.097c0.859,-0.982 2.454,-2.27 4.786,-3.865l2.761,-1.902l-0.246,-0.798c-0.082,-0.245 -0.235,-0.644 -0.46,-1.196c-0.225,-0.552 -0.481,-1.115 -0.767,-1.687c-0.9,-1.718 -1.37,-2.894 -1.411,-3.528c-0.041,-0.634 -0.061,-1.012 -0.061,-1.135c-0,-0.981 0.286,-2.024 0.859,-3.129c0.286,-0.531 0.787,-1.217 1.503,-2.055c0.715,-0.838 1.431,-1.585 2.147,-2.239c0.716,-0.655 1.258,-1.043 1.626,-1.166l0.306,0c0.737,0 1.105,0.511 1.105,1.534c-0,0.9 -0.266,1.35 -0.798,1.35c-0.122,-0 -0.266,-0.021 -0.429,-0.062c-0.082,-0.041 -0.164,-0.061 -0.246,-0.061c-0.081,-0 -0.163,0.02 -0.245,0.061c-0.123,0.041 -0.286,0.143 -0.491,0.307c-0.204,0.164 -0.45,0.409 -0.736,0.736c-1.759,1.841 -2.638,3.456 -2.638,4.847c-0,0.286 0.041,0.572 0.123,0.859c0.081,0.286 0.235,0.685 0.46,1.196c0.225,0.511 0.48,1.033 0.767,1.564c0.245,0.532 0.48,1.054 0.705,1.565c0.225,0.511 0.378,0.889 0.46,1.135l0.246,0.797l3.006,-1.779c1.922,-1.104 4.008,-2.249 6.258,-3.435c2.249,-1.186 4.008,-2.066 5.276,-2.638c0.531,-0.205 0.94,-0.307 1.227,-0.307c0.286,-0 0.47,0.102 0.552,0.307c0.041,0.081 0.061,0.163 0.061,0.245c0,0.368 -0.348,0.798 -1.043,1.288c-2.208,1.391 -4.601,2.761 -7.178,4.111c-1.84,0.941 -3.619,1.922 -5.337,2.945l-2.577,1.472l-0.123,1.043c-0.204,1.35 -0.777,2.658 -1.717,3.926c-0.941,1.268 -2.045,2.229 -3.313,2.884c-0.9,0.491 -1.923,0.736 -3.068,0.736c-1.145,-0.123 -1.81,-0.419 -1.994,-0.89c-0.184,-0.47 -0.276,-0.807 -0.276,-1.012c0,-0.613 0.307,-1.288 0.92,-2.024Zm3.559,1.472c1.268,-0.736 2.27,-1.759 3.006,-3.067c0.164,-0.328 0.296,-0.604 0.399,-0.829c0.102,-0.225 0.153,-0.358 0.153,-0.398l-0.061,-0c-0.082,-0 -0.368,0.163 -0.859,0.49c-0.532,0.368 -1.145,0.808 -1.841,1.319c-0.695,0.512 -1.329,1.013 -1.902,1.503c-0.736,0.614 -1.104,1.043 -1.104,1.289l0,0.061c0.041,0.164 0.184,0.246 0.43,0.246c0.081,-0 0.184,-0.021 0.306,-0.062c0.45,-0.123 0.941,-0.307 1.473,-0.552Z" style="fill:#fff;fill-rule:nonzero;"/><path d="M601.656,542.569c-0.245,-0.654 -0.368,-1.37 -0.368,-2.147c0,-0.287 0.021,-0.573 0.061,-0.859c0.082,-1.104 0.328,-2.066 0.737,-2.884c1.145,-2.126 2.72,-3.701 4.724,-4.724c1.186,-0.49 2.188,-0.736 3.006,-0.736c0.859,0 1.534,0.246 2.024,0.736c0.409,0.369 0.614,0.818 0.614,1.35c-0,0.818 -0.471,1.8 -1.411,2.945c-0.859,0.982 -1.923,1.851 -3.19,2.607c-1.268,0.757 -2.414,1.217 -3.436,1.381l-1.166,0.122l0.123,0.737c0.245,1.717 1.35,2.576 3.313,2.576c1.472,0 3.436,-0.491 5.89,-1.472c3.64,-1.391 6.809,-3.17 9.509,-5.338c0.736,-0.531 1.288,-0.797 1.656,-0.797c0.164,-0 0.287,0.061 0.368,0.184c0.082,0.082 0.123,0.184 0.123,0.307c0,0.368 -0.368,0.899 -1.104,1.595c-2.7,2.29 -5.829,4.233 -9.387,5.828c-1.309,0.532 -2.577,0.951 -3.804,1.258c-1.227,0.306 -2.229,0.46 -3.006,0.46c-0.695,-0 -1.37,-0.082 -2.024,-0.246c-1.391,-0.327 -2.475,-1.288 -3.252,-2.883Zm4.172,-4.969c1.472,-0.737 2.638,-1.555 3.497,-2.454c0.613,-0.655 0.92,-1.207 0.92,-1.657c0,-0.245 -0.163,-0.368 -0.491,-0.368c-0.286,0 -0.674,0.082 -1.165,0.245c-0.736,0.287 -1.493,0.737 -2.27,1.35c-0.777,0.614 -1.411,1.309 -1.902,2.086c-0.45,0.614 -0.675,1.043 -0.675,1.288c0,0.123 0.102,0.184 0.307,0.184c0.286,0 0.879,-0.224 1.779,-0.674Z" style="fill:#fff;fill-rule:nonzero;"/><path d="M624.294,545.636c-1.677,-0.695 -2.515,-2.229 -2.515,-4.601c0,-2.658 1.329,-5.48 3.988,-8.466c1.39,-1.513 2.761,-2.27 4.11,-2.27c0.368,-0 0.665,0.051 0.89,0.153c0.225,0.103 0.48,0.297 0.767,0.583c0.49,0.532 0.736,1.043 0.736,1.534l-0,0.184c-0.041,0.532 -0.368,0.798 -0.982,0.798c-0.327,-0 -0.613,-0.205 -0.859,-0.614c-0.163,-0.409 -0.429,-0.613 -0.797,-0.613c-0.327,-0 -0.736,0.184 -1.227,0.552c-1.227,0.94 -2.291,2.208 -3.19,3.803c-0.9,1.595 -1.391,3.068 -1.473,4.418l0,0.061c0,1.922 0.982,2.883 2.945,2.883c1.472,0 3.497,-0.552 6.074,-1.656c1.799,-0.695 3.783,-1.554 5.951,-2.577c2.167,-1.022 4.028,-2.086 5.583,-3.19c0.49,-0.327 0.879,-0.491 1.165,-0.491c0.205,0 0.348,0.062 0.43,0.184c0.081,0.082 0.122,0.205 0.122,0.368c0,0.287 -0.225,0.655 -0.675,1.105c-0.695,0.654 -1.83,1.421 -3.404,2.3c-1.575,0.88 -3.17,1.728 -4.786,2.546c-1.615,0.818 -2.893,1.411 -3.834,1.779c-2.618,1.064 -4.826,1.596 -6.626,1.596c-0.9,-0 -1.697,-0.123 -2.393,-0.369Z" style="fill:#fff;fill-rule:nonzero;"/><path d="M640.061,544.041c0.409,-0.859 1.258,-2.249 2.546,-4.171c1.289,-1.923 2.567,-3.743 3.835,-5.461c1.268,-1.717 2.106,-2.74 2.515,-3.067c0.205,-0.164 0.389,-0.245 0.552,-0.245c0.164,-0 0.348,0.04 0.552,0.122c0.246,0.082 0.399,0.184 0.461,0.307c0.061,0.123 0.092,0.368 0.092,0.736c-0,0.491 -0.103,0.91 -0.307,1.258c-0.205,0.347 -0.45,0.521 -0.736,0.521c-0.123,0 -0.297,0.103 -0.522,0.307c-0.225,0.205 -0.44,0.45 -0.644,0.736c-0.573,0.777 -0.869,1.197 -0.89,1.258c-0.02,0.061 -0.03,0.112 -0.03,0.153l0.061,0c0.041,0 0.184,-0.081 0.43,-0.245c0.572,-0.409 1.227,-0.614 1.963,-0.614c0.818,0 1.738,0.225 2.76,0.675c2.536,1.064 5.154,1.595 7.853,1.595c0.736,0 1.473,-0.041 2.209,-0.122c1.718,-0.123 3.292,-0.614 4.724,-1.473c0.45,-0.245 0.838,-0.368 1.165,-0.368c0.246,0 0.43,0.102 0.553,0.307c0.081,0.123 0.122,0.245 0.122,0.368c0,0.327 -0.306,0.757 -0.92,1.288c-1.677,1.186 -3.497,1.82 -5.46,1.902c-0.736,0.082 -1.472,0.123 -2.209,0.123c-3.19,-0 -6.319,-0.654 -9.386,-1.963c-0.532,-0.246 -0.961,-0.368 -1.289,-0.368c-0.163,-0 -0.286,0.02 -0.368,0.061c-0.327,0.082 -1.094,0.695 -2.3,1.84c-1.207,1.146 -2.587,2.557 -4.141,4.234c-0.696,0.777 -1.207,1.288 -1.534,1.533c-0.327,0.246 -0.634,0.368 -0.92,0.368c-0.45,0 -0.716,-0.112 -0.798,-0.337c-0.082,-0.225 -0.123,-0.399 -0.123,-0.521c0,-0.246 0.062,-0.491 0.184,-0.737Z" style="fill:#fff;fill-rule:nonzero;"/><path d="M667.239,542.569c-0.245,-0.654 -0.368,-1.37 -0.368,-2.147c0,-0.287 0.021,-0.573 0.062,-0.859c0.081,-1.104 0.327,-2.066 0.736,-2.884c1.145,-2.126 2.72,-3.701 4.724,-4.724c1.186,-0.49 2.188,-0.736 3.006,-0.736c0.859,0 1.534,0.246 2.025,0.736c0.409,0.369 0.613,0.818 0.613,1.35c0,0.818 -0.47,1.8 -1.411,2.945c-0.859,0.982 -1.922,1.851 -3.19,2.607c-1.268,0.757 -2.413,1.217 -3.436,1.381l-1.165,0.122l0.122,0.737c0.246,1.717 1.35,2.576 3.313,2.576c1.473,0 3.436,-0.491 5.89,-1.472c3.64,-1.391 6.81,-3.17 9.509,-5.338c0.736,-0.531 1.288,-0.797 1.656,-0.797c0.164,-0 0.287,0.061 0.369,0.184c0.081,0.082 0.122,0.184 0.122,0.307c0,0.368 -0.368,0.899 -1.104,1.595c-2.699,2.29 -5.828,4.233 -9.387,5.828c-1.308,0.532 -2.576,0.951 -3.803,1.258c-1.227,0.306 -2.229,0.46 -3.006,0.46c-0.696,-0 -1.371,-0.082 -2.025,-0.246c-1.391,-0.327 -2.474,-1.288 -3.252,-2.883Zm4.172,-4.969c1.473,-0.737 2.638,-1.555 3.497,-2.454c0.614,-0.655 0.92,-1.207 0.92,-1.657c0,-0.245 -0.163,-0.368 -0.49,-0.368c-0.287,0 -0.675,0.082 -1.166,0.245c-0.736,0.287 -1.493,0.737 -2.27,1.35c-0.777,0.614 -1.411,1.309 -1.902,2.086c-0.45,0.614 -0.675,1.043 -0.675,1.288c0,0.123 0.103,0.184 0.307,0.184c0.286,0 0.879,-0.224 1.779,-0.674Z" style="fill:#fff;fill-rule:nonzero;"/><path d="M688.16,537.477c0.572,-1.922 1.718,-4.428 3.435,-7.515c1.718,-3.088 3.518,-5.9 5.399,-8.436l0.736,-0.92l-5.214,-0c-3.681,-0 -6.176,-0.133 -7.485,-0.399c-1.309,-0.266 -1.963,-0.767 -1.963,-1.503l-0,-0.123c-0,-0.573 0.225,-0.961 0.675,-1.166c0.122,-0.04 0.265,-0.061 0.429,-0.061c0.327,0 0.654,0.184 0.982,0.552l0.429,0.552l4.356,0.123l3.865,0c1.309,0 2.331,-0.02 3.067,-0.061l2.516,-0.184l3.374,-4.295c0.982,-1.227 1.83,-2.28 2.546,-3.159c0.716,-0.88 1.135,-1.381 1.258,-1.503c0.122,-0.082 0.266,-0.123 0.429,-0.123c0.164,-0 0.327,0.02 0.491,0.061c0.368,0.164 0.573,0.348 0.614,0.552c0.04,0.205 0.061,0.328 0.061,0.368c-0,0.328 -0.143,0.634 -0.43,0.921l-2.852,3.466c-0.675,0.838 -1.268,1.595 -1.779,2.27c-0.512,0.675 -0.829,1.094 -0.951,1.258c-0,0.041 0.122,0.081 0.368,0.122c0.245,0.041 0.736,0.072 1.472,0.092c0.736,0.021 1.779,0.031 3.129,0.031c1.35,0 3.088,-0.02 5.215,-0.061l7.086,-0c0.756,-0 1.36,0.01 1.809,0.03c0.45,0.021 0.798,0.041 1.043,0.062c0.246,0.02 0.409,0.061 0.491,0.122c0.082,0.062 0.143,0.113 0.184,0.154c0.205,0.245 0.307,0.429 0.307,0.552c-0,0.123 -0.102,0.307 -0.307,0.552c-0.041,0.082 -0.112,0.143 -0.214,0.184c-0.103,0.041 -0.277,0.082 -0.522,0.123c-0.245,0.041 -0.603,0.071 -1.074,0.092c-0.47,0.02 -1.124,0.041 -1.963,0.061c-0.838,0.021 -1.881,0.041 -3.129,0.062c-1.247,0.02 -2.771,0.03 -4.57,0.03c-3.15,0.041 -5.777,0.082 -7.884,0.123c-2.106,0.041 -3.221,0.082 -3.343,0.123c-2.25,2.781 -4.356,5.889 -6.319,9.325c-1.964,3.435 -3.272,6.258 -3.927,8.466c-0.286,1.064 -0.429,2.004 -0.429,2.822c-0,1.514 0.491,2.536 1.472,3.068c0.696,0.409 1.534,0.613 2.516,0.613c1.145,0 2.494,-0.266 4.049,-0.797c2.372,-0.818 4.989,-1.943 7.852,-3.375c2.863,-1.431 4.929,-2.638 6.197,-3.619c0.736,-0.573 1.309,-0.859 1.718,-0.859l0.184,-0c0.327,0.082 0.49,0.307 0.49,0.675l0,0.122c-0.04,0.45 -0.265,0.88 -0.674,1.289c-1.064,0.9 -2.914,2.045 -5.553,3.435c-2.638,1.391 -5.306,2.618 -8.006,3.681c-2.249,0.9 -4.335,1.35 -6.257,1.35l-0.675,0c-2.127,-0.082 -3.548,-0.685 -4.264,-1.81c-0.716,-1.124 -1.074,-2.321 -1.074,-3.589c0,-1.104 0.205,-2.413 0.614,-3.926Z" style="fill:#fff;fill-rule:nonzero;"/><path d="M723.191,542.14c-0.082,-0.778 -0.123,-1.575 -0.123,-2.393c-0,-0.777 -0.021,-1.442 -0.061,-1.994c-0.041,-0.552 -0.082,-0.828 -0.123,-0.828c-0.082,-0 -0.45,0.225 -1.104,0.675c-0.655,0.45 -1.432,1.002 -2.332,1.656c-2.863,2.045 -4.969,3.497 -6.319,4.356c-1.677,0.982 -2.945,1.472 -3.803,1.472c-0.614,0 -1.023,-0.245 -1.227,-0.736c-0.123,-0.245 -0.185,-0.511 -0.185,-0.797c0,-1.105 0.737,-2.598 2.209,-4.479c0.818,-0.941 1.728,-1.902 2.73,-2.883c1.002,-0.982 1.892,-1.759 2.669,-2.332c2.577,-1.718 4.806,-2.576 6.687,-2.576c1.227,-0 2.29,0.368 3.19,1.104c0.9,0.859 1.37,1.646 1.411,2.362c0.041,0.716 0.062,1.094 0.062,1.135c-0,1.227 -0.389,2.229 -1.166,3.006c-0.205,0.204 -0.348,0.378 -0.429,0.521c-0.082,0.144 -0.144,0.328 -0.185,0.553c-0.04,0.225 -0.061,0.542 -0.061,0.951c0,0.368 0.021,0.715 0.061,1.042c0.328,2.209 0.9,3.385 1.718,3.528c0.818,0.143 1.37,0.215 1.657,0.215c1.145,-0 2.413,-0.327 3.803,-0.982c1.882,-0.818 4.193,-2.27 6.933,-4.356c0.9,-0.695 1.779,-1.349 2.638,-1.963c1.063,-0.736 2.045,-1.452 2.945,-2.147c0.204,-0.082 0.388,-0.123 0.552,-0.123c0.204,0 0.389,0.062 0.552,0.184c0.246,0.164 0.368,0.389 0.368,0.675c0,0.123 -0.02,0.246 -0.061,0.368l-1.166,0.982l-0.981,0.736c-0.655,0.573 -1.258,1.074 -1.81,1.503l-2.178,1.687c-2.577,1.963 -4.806,3.374 -6.687,4.233c-1.718,0.777 -3.334,1.166 -4.847,1.166c-0.654,0 -1.268,-0.061 -1.84,-0.184c-2.045,-0.409 -3.211,-2.188 -3.497,-5.337Zm-11.105,-0.307c0.491,-0.287 1.248,-0.777 2.27,-1.473c1.023,-0.695 2.066,-1.431 3.129,-2.208c1.104,-0.777 2.086,-1.462 2.945,-2.055c0.859,-0.594 1.431,-0.951 1.718,-1.074c0.368,-0.164 0.695,-0.245 0.981,-0.245c0.491,-0 0.941,0.184 1.35,0.552c0.123,0.122 0.204,0.184 0.245,0.184l0.062,-0c0.041,-0 0.061,-0.123 0.061,-0.368c0,-0.164 -0.051,-0.348 -0.153,-0.553c-0.103,-0.204 -0.235,-0.368 -0.399,-0.49c-0.614,-0.491 -1.35,-0.737 -2.209,-0.737c-1.554,0 -3.538,0.859 -5.951,2.577c-0.695,0.532 -1.492,1.248 -2.392,2.147c-0.9,0.9 -1.677,1.759 -2.332,2.577c-0.449,0.573 -0.766,1.012 -0.95,1.319c-0.185,0.307 -0.277,0.522 -0.277,0.644c0,0.082 0.041,0.123 0.123,0.123c0.246,0 0.839,-0.307 1.779,-0.92Z" style="fill:#fff;fill-rule:nonzero;"/><path d="M786.074,542.14c-0.081,-0.778 -0.122,-1.575 -0.122,-2.393c-0,-0.777 -0.021,-1.442 -0.062,-1.994c-0.041,-0.552 -0.081,-0.828 -0.122,-0.828c-0.082,-0 -0.45,0.225 -1.105,0.675c-0.654,0.45 -1.431,1.002 -2.331,1.656c-2.863,2.045 -4.969,3.497 -6.319,4.356c-1.677,0.982 -2.945,1.472 -3.804,1.472c-0.613,0 -1.022,-0.245 -1.227,-0.736c-0.122,-0.245 -0.184,-0.511 -0.184,-0.797c0,-1.105 0.736,-2.598 2.209,-4.479c0.818,-0.941 1.728,-1.902 2.73,-2.883c1.002,-0.982 1.892,-1.759 2.669,-2.332c2.576,-1.718 4.805,-2.576 6.687,-2.576c1.227,-0 2.29,0.368 3.19,1.104c0.9,0.859 1.37,1.646 1.411,2.362c0.041,0.716 0.061,1.094 0.061,1.135c0,1.227 -0.388,2.229 -1.165,3.006c-0.205,0.204 -0.348,0.378 -0.43,0.521c-0.081,0.144 -0.143,0.328 -0.184,0.553c-0.041,0.225 -0.061,0.542 -0.061,0.951c-0,0.368 0.02,0.715 0.061,1.042c0.327,2.209 0.9,3.385 1.718,3.528c0.818,0.143 1.37,0.215 1.657,0.215c1.145,-0 2.413,-0.327 3.803,-0.982c1.882,-0.818 4.192,-2.27 6.933,-4.356c0.9,-0.695 1.779,-1.349 2.638,-1.963c1.063,-0.736 2.045,-1.452 2.945,-2.147c0.204,-0.082 0.388,-0.123 0.552,-0.123c0.204,0 0.388,0.062 0.552,0.184c0.245,0.164 0.368,0.389 0.368,0.675c0,0.123 -0.02,0.246 -0.061,0.368l-1.166,0.982l-0.982,0.736c-0.654,0.573 -1.257,1.074 -1.809,1.503l-2.178,1.687c-2.577,1.963 -4.806,3.374 -6.687,4.233c-1.718,0.777 -3.334,1.166 -4.847,1.166c-0.655,0 -1.268,-0.061 -1.841,-0.184c-2.045,-0.409 -3.21,-2.188 -3.497,-5.337Zm-11.104,-0.307c0.491,-0.287 1.248,-0.777 2.27,-1.473c1.023,-0.695 2.065,-1.431 3.129,-2.208c1.104,-0.777 2.086,-1.462 2.945,-2.055c0.859,-0.594 1.431,-0.951 1.717,-1.074c0.369,-0.164 0.696,-0.245 0.982,-0.245c0.491,-0 0.941,0.184 1.35,0.552c0.122,0.122 0.204,0.184 0.245,0.184l0.062,-0c0.04,-0 0.061,-0.123 0.061,-0.368c-0,-0.164 -0.051,-0.348 -0.154,-0.553c-0.102,-0.204 -0.235,-0.368 -0.398,-0.49c-0.614,-0.491 -1.35,-0.737 -2.209,-0.737c-1.554,0 -3.538,0.859 -5.951,2.577c-0.695,0.532 -1.493,1.248 -2.392,2.147c-0.9,0.9 -1.677,1.759 -2.332,2.577c-0.45,0.573 -0.767,1.012 -0.951,1.319c-0.184,0.307 -0.276,0.522 -0.276,0.644c0,0.082 0.041,0.123 0.123,0.123c0.245,0 0.838,-0.307 1.779,-0.92Z" style="fill:#fff;fill-rule:nonzero;"/><path d="M809.694,549.686c-1.922,-0.614 -3.088,-1.964 -3.497,-4.05c-0.082,-0.449 -0.122,-0.94 -0.122,-1.472c-0,-1.759 0.511,-3.967 1.533,-6.626c0.205,-0.572 0.327,-0.951 0.368,-1.135c0.041,-0.184 0.062,-0.317 0.062,-0.398c-0,-0.164 -0.041,-0.287 -0.123,-0.369c-0.082,-0.163 -0.123,-0.347 -0.123,-0.552c0,-0.491 0.348,-0.981 1.043,-1.472c0.573,-0.409 1.166,-1.166 1.779,-2.27c1.718,-3.108 3.978,-6.473 6.78,-10.092c2.801,-3.62 5.593,-6.738 8.374,-9.356c3.231,-3.068 6.104,-5.532 8.62,-7.393c2.515,-1.861 4.222,-2.791 5.122,-2.791c0.368,-0 0.706,0.143 1.013,0.429c0.306,0.287 0.46,0.593 0.46,0.921c-0,1.84 -4.152,6.871 -12.454,15.092c-5.317,5.317 -10.246,9.979 -14.786,13.987l-2.638,2.332l-1.043,2.454c-1.268,2.945 -1.902,5.337 -1.902,7.178c0,1.309 0.246,2.229 0.737,2.76c0.49,0.532 1.288,0.798 2.392,0.798c1.718,0 3.876,-0.706 6.473,-2.117c2.597,-1.411 6.165,-3.854 10.705,-7.331c0.777,-0.572 1.452,-1.063 2.025,-1.472c0.613,-0.409 1.104,-0.614 1.472,-0.614l0.184,0c0.287,0.123 0.43,0.348 0.43,0.675l-0,0.123c-0.041,0.368 -0.287,0.777 -0.736,1.227c-0.45,0.409 -1.309,1.084 -2.577,2.024c-6.34,4.786 -11.105,7.751 -14.295,8.896c-1.595,0.491 -2.945,0.736 -4.049,0.736c-0.45,0 -0.859,-0.041 -1.227,-0.122Zm9.203,-24.97c2.822,-2.617 5.715,-5.429 8.681,-8.436c2.965,-3.006 5.429,-5.613 7.392,-7.822c1.964,-2.208 2.945,-3.476 2.945,-3.803c-0.082,-0 -0.286,0.102 -0.613,0.306c-0.328,0.205 -0.737,0.471 -1.227,0.798c-2.291,1.677 -4.755,3.742 -7.393,6.196c-2.638,2.454 -5.02,4.908 -7.147,7.362c-0.736,0.9 -1.554,1.923 -2.454,3.068c-0.9,1.145 -1.708,2.208 -2.424,3.19c-0.715,0.982 -1.196,1.677 -1.441,2.086l-0.246,0.491l0.062,-0c0.041,-0 0.143,-0.062 0.306,-0.184c0.123,-0.123 0.522,-0.491 1.197,-1.105c0.675,-0.613 1.462,-1.329 2.362,-2.147Z" style="fill:#fff;fill-rule:nonzero;"/><path d="M859.142,539.931c0.287,-0.941 0.818,-1.984 1.595,-3.129c0.777,-1.104 1.636,-2.117 2.577,-3.037c0.941,-0.92 1.575,-1.38 1.902,-1.38c0.327,-0 0.573,0.112 0.736,0.337c0.164,0.225 0.246,0.44 0.246,0.644c-0,0.082 -0.021,0.185 -0.062,0.307c-0.041,0.123 -0.245,0.399 -0.613,0.828c-0.368,0.43 -0.798,0.91 -1.289,1.442c-1.227,1.186 -2.086,2.27 -2.576,3.252c-0.573,1.186 -0.859,2.167 -0.859,2.945l-0,0.368c0.122,0.613 0.654,0.92 1.595,0.92c0.368,-0 0.797,-0.041 1.288,-0.123c1.391,-0.286 3.293,-0.981 5.706,-2.086c2.004,-0.9 3.885,-1.779 5.644,-2.638c1.759,-0.859 3.149,-1.574 4.172,-2.147c0.695,-0.327 1.227,-0.491 1.595,-0.491c0.286,0 0.491,0.082 0.613,0.246c0.041,0.081 0.062,0.163 0.062,0.245c-0,0.409 -0.45,0.92 -1.35,1.534c-0.491,0.327 -1.012,0.634 -1.564,0.92c-0.553,0.286 -1.381,0.716 -2.485,1.288l-1.595,0.798c-4.908,2.536 -8.385,3.988 -10.43,4.356c-0.531,0.082 -1.043,0.122 -1.533,0.122c-1.227,0 -2.189,-0.347 -2.884,-1.043c-0.573,-0.572 -0.859,-1.349 -0.859,-2.331c0,-0.613 0.123,-1.329 0.368,-2.147Zm12.086,-14.724c-0.082,-0.082 -0.122,-0.205 -0.122,-0.368l-0,-0.736c0.04,-0.205 0.122,-0.348 0.245,-0.43c0.204,-0.204 0.45,-0.307 0.736,-0.307l0.184,0c0.368,0.082 0.634,0.266 0.798,0.553c0.082,0.163 0.122,0.306 0.122,0.429l0,0.123c0,0.122 -0.081,0.266 -0.245,0.429c-0.245,0.246 -0.491,0.389 -0.736,0.43c-0.246,0.041 -0.409,0.061 -0.491,0.061c-0.204,-0 -0.368,-0.061 -0.491,-0.184Z" style="fill:#fff;fill-rule:nonzero;"/><path d="M874.787,544.348c-0.041,-0.123 -0.062,-0.266 -0.062,-0.429c0,-0.164 0.021,-0.328 0.062,-0.491c0.122,-0.409 0.449,-1.012 0.981,-1.81c0.532,-0.798 1.35,-1.912 2.454,-3.344c1.186,-1.636 2.117,-2.893 2.792,-3.773c0.674,-0.879 1.186,-1.503 1.533,-1.871c0.348,-0.368 0.624,-0.562 0.829,-0.583c0.204,-0.02 0.409,0.052 0.613,0.215c0.286,0.123 0.43,0.327 0.43,0.614c-0,0.286 -0.205,0.736 -0.614,1.349c-0.409,0.614 -1.063,1.493 -1.963,2.638c-0.736,0.941 -1.35,1.739 -1.841,2.393c-0.49,0.654 -0.736,1.002 -0.736,1.043c0.041,0 0.246,-0.102 0.614,-0.307c0.368,-0.204 0.797,-0.491 1.288,-0.859c2.863,-1.881 4.663,-2.822 5.399,-2.822l1.165,0c1.35,0 2.475,0.9 3.375,2.7c0.531,1.022 0.981,1.677 1.349,1.963c0.368,0.286 0.818,0.429 1.35,0.429c0.205,0 0.43,-0.02 0.675,-0.061c0.859,-0.082 2.055,-0.429 3.589,-1.043c1.534,-0.613 3.026,-1.288 4.478,-2.025c1.452,-0.736 2.485,-1.349 3.099,-1.84c0.327,-0.245 0.613,-0.368 0.859,-0.368c0.204,-0 0.368,0.082 0.49,0.245c0.123,0.123 0.184,0.266 0.184,0.43c0,0.204 -0.143,0.491 -0.429,0.859c-0.941,0.981 -2.454,1.983 -4.54,3.006c-2.086,1.022 -4.151,1.799 -6.196,2.331c-0.941,0.286 -1.779,0.43 -2.516,0.43c-0.613,-0 -1.124,-0.103 -1.533,-0.307c-0.941,-0.409 -1.841,-1.452 -2.7,-3.129c-0.245,-0.45 -0.44,-0.777 -0.583,-0.982c-0.143,-0.204 -0.286,-0.347 -0.429,-0.429c-0.143,-0.082 -0.338,-0.123 -0.583,-0.123l-0.184,0c-0.613,0 -1.595,0.368 -2.945,1.104c-1.472,0.818 -3.681,2.25 -6.626,4.295c-1.022,0.736 -1.799,1.104 -2.331,1.104c-0.409,0 -0.675,-0.184 -0.797,-0.552Z" style="fill:#fff;fill-rule:nonzero;"/><path d="M901.351,551.097c0.859,-0.982 2.454,-2.27 4.785,-3.865l2.761,-1.902l-0.245,-0.798c-0.082,-0.245 -0.235,-0.644 -0.46,-1.196c-0.225,-0.552 -0.481,-1.115 -0.767,-1.687c-0.9,-1.718 -1.37,-2.894 -1.411,-3.528c-0.041,-0.634 -0.062,-1.012 -0.062,-1.135c0,-0.981 0.287,-2.024 0.859,-3.129c0.287,-0.531 0.788,-1.217 1.503,-2.055c0.716,-0.838 1.432,-1.585 2.148,-2.239c0.715,-0.655 1.257,-1.043 1.625,-1.166l0.307,0c0.736,0 1.104,0.511 1.104,1.534c0,0.9 -0.265,1.35 -0.797,1.35c-0.123,-0 -0.266,-0.021 -0.43,-0.062c-0.081,-0.041 -0.163,-0.061 -0.245,-0.061c-0.082,-0 -0.164,0.02 -0.245,0.061c-0.123,0.041 -0.287,0.143 -0.491,0.307c-0.205,0.164 -0.45,0.409 -0.736,0.736c-1.759,1.841 -2.638,3.456 -2.638,4.847c-0,0.286 0.04,0.572 0.122,0.859c0.082,0.286 0.235,0.685 0.46,1.196c0.225,0.511 0.481,1.033 0.767,1.564c0.246,0.532 0.481,1.054 0.706,1.565c0.225,0.511 0.378,0.889 0.46,1.135l0.245,0.797l3.006,-1.779c1.923,-1.104 4.009,-2.249 6.258,-3.435c2.25,-1.186 4.008,-2.066 5.276,-2.638c0.532,-0.205 0.941,-0.307 1.227,-0.307c0.287,-0 0.471,0.102 0.552,0.307c0.041,0.081 0.062,0.163 0.062,0.245c-0,0.368 -0.348,0.798 -1.043,1.288c-2.209,1.391 -4.601,2.761 -7.178,4.111c-1.841,0.941 -3.62,1.922 -5.338,2.945l-2.576,1.472l-0.123,1.043c-0.204,1.35 -0.777,2.658 -1.718,3.926c-0.94,1.268 -2.045,2.229 -3.313,2.884c-0.899,0.491 -1.922,0.736 -3.067,0.736c-1.145,-0.123 -1.81,-0.419 -1.994,-0.89c-0.184,-0.47 -0.276,-0.807 -0.276,-1.012c-0,-0.613 0.307,-1.288 0.92,-2.024Zm3.558,1.472c1.268,-0.736 2.27,-1.759 3.007,-3.067c0.163,-0.328 0.296,-0.604 0.398,-0.829c0.103,-0.225 0.154,-0.358 0.154,-0.398l-0.062,-0c-0.081,-0 -0.368,0.163 -0.859,0.49c-0.531,0.368 -1.145,0.808 -1.84,1.319c-0.695,0.512 -1.329,1.013 -1.902,1.503c-0.736,0.614 -1.104,1.043 -1.104,1.289l-0,0.061c0.041,0.164 0.184,0.246 0.429,0.246c0.082,-0 0.184,-0.021 0.307,-0.062c0.45,-0.123 0.941,-0.307 1.472,-0.552Z" style="fill:#fff;fill-rule:nonzero;"/><path d="M925.4,537.477c0.573,-1.922 1.718,-4.428 3.436,-7.515c1.718,-3.088 3.517,-5.9 5.399,-8.436l0.736,-0.92l-5.215,-0c-3.681,-0 -6.176,-0.133 -7.485,-0.399c-1.308,-0.266 -1.963,-0.767 -1.963,-1.503l0,-0.123c0,-0.573 0.225,-0.961 0.675,-1.166c0.123,-0.04 0.266,-0.061 0.43,-0.061c0.327,0 0.654,0.184 0.981,0.552l0.43,0.552l4.355,0.123l3.866,0c1.308,0 2.331,-0.02 3.067,-0.061l2.515,-0.184l3.375,-4.295c0.981,-1.227 1.83,-2.28 2.546,-3.159c0.715,-0.88 1.135,-1.381 1.257,-1.503c0.123,-0.082 0.266,-0.123 0.43,-0.123c0.163,-0 0.327,0.02 0.491,0.061c0.368,0.164 0.572,0.348 0.613,0.552c0.041,0.205 0.061,0.328 0.061,0.368c0,0.328 -0.143,0.634 -0.429,0.921l-2.853,3.466c-0.675,0.838 -1.268,1.595 -1.779,2.27c-0.511,0.675 -0.828,1.094 -0.951,1.258c0,0.041 0.123,0.081 0.368,0.122c0.246,0.041 0.736,0.072 1.473,0.092c0.736,0.021 1.779,0.031 3.128,0.031c1.35,0 3.088,-0.02 5.215,-0.061l7.086,-0c0.757,-0 1.36,0.01 1.81,0.03c0.45,0.021 0.798,0.041 1.043,0.062c0.245,0.02 0.409,0.061 0.491,0.122c0.082,0.062 0.143,0.113 0.184,0.154c0.204,0.245 0.307,0.429 0.307,0.552c-0,0.123 -0.103,0.307 -0.307,0.552c-0.041,0.082 -0.113,0.143 -0.215,0.184c-0.102,0.041 -0.276,0.082 -0.521,0.123c-0.246,0.041 -0.604,0.071 -1.074,0.092c-0.47,0.02 -1.125,0.041 -1.963,0.061c-0.839,0.021 -1.882,0.041 -3.129,0.062c-1.248,0.02 -2.771,0.03 -4.571,0.03c-3.149,0.041 -5.777,0.082 -7.883,0.123c-2.106,0.041 -3.221,0.082 -3.344,0.123c-2.249,2.781 -4.356,5.889 -6.319,9.325c-1.963,3.435 -3.272,6.258 -3.926,8.466c-0.286,1.064 -0.43,2.004 -0.43,2.822c0,1.514 0.491,2.536 1.473,3.068c0.695,0.409 1.534,0.613 2.515,0.613c1.145,0 2.495,-0.266 4.049,-0.797c2.372,-0.818 4.99,-1.943 7.853,-3.375c2.863,-1.431 4.928,-2.638 6.196,-3.619c0.737,-0.573 1.309,-0.859 1.718,-0.859l0.184,-0c0.327,0.082 0.491,0.307 0.491,0.675l0,0.122c-0.041,0.45 -0.266,0.88 -0.675,1.289c-1.063,0.9 -2.914,2.045 -5.552,3.435c-2.638,1.391 -5.307,2.618 -8.006,3.681c-2.25,0.9 -4.336,1.35 -6.258,1.35l-0.675,0c-2.127,-0.082 -3.548,-0.685 -4.264,-1.81c-0.715,-1.124 -1.073,-2.321 -1.073,-3.589c-0,-1.104 0.204,-2.413 0.613,-3.926Z" style="fill:#fff;fill-rule:nonzero;"/><path d="M960.431,542.14c-0.082,-0.778 -0.123,-1.575 -0.123,-2.393c0,-0.777 -0.02,-1.442 -0.061,-1.994c-0.041,-0.552 -0.082,-0.828 -0.123,-0.828c-0.081,-0 -0.449,0.225 -1.104,0.675c-0.654,0.45 -1.431,1.002 -2.331,1.656c-2.863,2.045 -4.97,3.497 -6.319,4.356c-1.677,0.982 -2.945,1.472 -3.804,1.472c-0.613,0 -1.022,-0.245 -1.227,-0.736c-0.123,-0.245 -0.184,-0.511 -0.184,-0.797c0,-1.105 0.736,-2.598 2.209,-4.479c0.818,-0.941 1.728,-1.902 2.73,-2.883c1.002,-0.982 1.891,-1.759 2.668,-2.332c2.577,-1.718 4.806,-2.576 6.688,-2.576c1.227,-0 2.29,0.368 3.19,1.104c0.9,0.859 1.37,1.646 1.411,2.362c0.041,0.716 0.061,1.094 0.061,1.135c0,1.227 -0.388,2.229 -1.165,3.006c-0.205,0.204 -0.348,0.378 -0.43,0.521c-0.082,0.144 -0.143,0.328 -0.184,0.553c-0.041,0.225 -0.061,0.542 -0.061,0.951c-0,0.368 0.02,0.715 0.061,1.042c0.327,2.209 0.9,3.385 1.718,3.528c0.818,0.143 1.37,0.215 1.656,0.215c1.145,-0 2.413,-0.327 3.804,-0.982c1.881,-0.818 4.192,-2.27 6.933,-4.356c0.899,-0.695 1.779,-1.349 2.638,-1.963c1.063,-0.736 2.045,-1.452 2.944,-2.147c0.205,-0.082 0.389,-0.123 0.553,-0.123c0.204,0 0.388,0.062 0.552,0.184c0.245,0.164 0.368,0.389 0.368,0.675c-0,0.123 -0.021,0.246 -0.062,0.368l-1.165,0.982l-0.982,0.736c-0.654,0.573 -1.257,1.074 -1.81,1.503l-2.178,1.687c-2.576,1.963 -4.805,3.374 -6.687,4.233c-1.718,0.777 -3.333,1.166 -4.846,1.166c-0.655,0 -1.268,-0.061 -1.841,-0.184c-2.045,-0.409 -3.211,-2.188 -3.497,-5.337Zm-11.104,-0.307c0.491,-0.287 1.247,-0.777 2.27,-1.473c1.022,-0.695 2.065,-1.431 3.129,-2.208c1.104,-0.777 2.086,-1.462 2.944,-2.055c0.859,-0.594 1.432,-0.951 1.718,-1.074c0.368,-0.164 0.696,-0.245 0.982,-0.245c0.491,-0 0.941,0.184 1.35,0.552c0.122,0.122 0.204,0.184 0.245,0.184l0.061,-0c0.041,-0 0.062,-0.123 0.062,-0.368c-0,-0.164 -0.051,-0.348 -0.154,-0.553c-0.102,-0.204 -0.235,-0.368 -0.399,-0.49c-0.613,-0.491 -1.349,-0.737 -2.208,-0.737c-1.554,0 -3.538,0.859 -5.951,2.577c-0.695,0.532 -1.493,1.248 -2.393,2.147c-0.9,0.9 -1.677,1.759 -2.331,2.577c-0.45,0.573 -0.767,1.012 -0.951,1.319c-0.184,0.307 -0.276,0.522 -0.276,0.644c-0,0.082 0.041,0.123 0.123,0.123c0.245,0 0.838,-0.307 1.779,-0.92Z" style="fill:#fff;fill-rule:nonzero;"/><path d="M977.425,544.348c-0.041,-0.123 -0.061,-0.266 -0.061,-0.429c-0,-0.164 0.02,-0.328 0.061,-0.491c0.123,-0.409 0.45,-1.012 0.982,-1.81c0.531,-0.798 1.349,-1.912 2.454,-3.344c1.186,-1.636 2.116,-2.893 2.791,-3.773c0.675,-0.879 1.186,-1.503 1.534,-1.871c0.348,-0.368 0.624,-0.562 0.828,-0.583c0.205,-0.02 0.409,0.052 0.614,0.215c0.286,0.123 0.429,0.327 0.429,0.614c0,0.286 -0.204,0.736 -0.613,1.349c-0.409,0.614 -1.064,1.493 -1.964,2.638c-0.736,0.941 -1.349,1.739 -1.84,2.393c-0.491,0.654 -0.736,1.002 -0.736,1.043c0.041,0 0.245,-0.102 0.613,-0.307c0.368,-0.204 0.798,-0.491 1.289,-0.859c2.863,-1.881 4.662,-2.822 5.398,-2.822l1.166,0c1.35,0 2.474,0.9 3.374,2.7c0.532,1.022 0.982,1.677 1.35,1.963c0.368,0.286 0.818,0.429 1.35,0.429c0.204,0 0.429,-0.02 0.675,-0.061c0.858,-0.082 2.055,-0.429 3.588,-1.043c1.534,-0.613 3.027,-1.288 4.479,-2.025c1.452,-0.736 2.485,-1.349 3.098,-1.84c0.327,-0.245 0.614,-0.368 0.859,-0.368c0.205,-0 0.368,0.082 0.491,0.245c0.123,0.123 0.184,0.266 0.184,0.43c-0,0.204 -0.143,0.491 -0.429,0.859c-0.941,0.981 -2.454,1.983 -4.54,3.006c-2.086,1.022 -4.152,1.799 -6.197,2.331c-0.94,0.286 -1.779,0.43 -2.515,0.43c-0.614,-0 -1.125,-0.103 -1.534,-0.307c-0.941,-0.409 -1.84,-1.452 -2.699,-3.129c-0.246,-0.45 -0.44,-0.777 -0.583,-0.982c-0.143,-0.204 -0.286,-0.347 -0.43,-0.429c-0.143,-0.082 -0.337,-0.123 -0.582,-0.123l-0.184,0c-0.614,0 -1.595,0.368 -2.945,1.104c-1.473,0.818 -3.681,2.25 -6.626,4.295c-1.022,0.736 -1.8,1.104 -2.331,1.104c-0.409,0 -0.675,-0.184 -0.798,-0.552Z" style="fill:#fff;fill-rule:nonzero;"/><path d="M1008.16,537.477c0.572,-1.922 1.717,-4.428 3.435,-7.515c1.718,-3.088 3.518,-5.9 5.399,-8.436l0.736,-0.92l-5.215,-0c-3.681,-0 -6.176,-0.133 -7.484,-0.399c-1.309,-0.266 -1.964,-0.767 -1.964,-1.503l0,-0.123c0,-0.573 0.225,-0.961 0.675,-1.166c0.123,-0.04 0.266,-0.061 0.43,-0.061c0.327,0 0.654,0.184 0.981,0.552l0.43,0.552l4.356,0.123l3.865,0c1.309,0 2.331,-0.02 3.067,-0.061l2.516,-0.184l3.374,-4.295c0.981,-1.227 1.83,-2.28 2.546,-3.159c0.716,-0.88 1.135,-1.381 1.258,-1.503c0.122,-0.082 0.265,-0.123 0.429,-0.123c0.164,-0 0.327,0.02 0.491,0.061c0.368,0.164 0.572,0.348 0.613,0.552c0.041,0.205 0.062,0.328 0.062,0.368c-0,0.328 -0.144,0.634 -0.43,0.921l-2.853,3.466c-0.674,0.838 -1.268,1.595 -1.779,2.27c-0.511,0.675 -0.828,1.094 -0.951,1.258c0,0.041 0.123,0.081 0.368,0.122c0.246,0.041 0.737,0.072 1.473,0.092c0.736,0.021 1.779,0.031 3.129,0.031c1.349,0 3.088,-0.02 5.214,-0.061l7.086,-0c0.757,-0 1.36,0.01 1.81,0.03c0.45,0.021 0.798,0.041 1.043,0.062c0.246,0.02 0.409,0.061 0.491,0.122c0.082,0.062 0.143,0.113 0.184,0.154c0.204,0.245 0.307,0.429 0.307,0.552c-0,0.123 -0.103,0.307 -0.307,0.552c-0.041,0.082 -0.112,0.143 -0.215,0.184c-0.102,0.041 -0.276,0.082 -0.521,0.123c-0.246,0.041 -0.603,0.071 -1.074,0.092c-0.47,0.02 -1.125,0.041 -1.963,0.061c-0.838,0.021 -1.881,0.041 -3.129,0.062c-1.247,0.02 -2.771,0.03 -4.57,0.03c-3.15,0.041 -5.778,0.082 -7.884,0.123c-2.106,0.041 -3.221,0.082 -3.344,0.123c-2.249,2.781 -4.355,5.889 -6.319,9.325c-1.963,3.435 -3.272,6.258 -3.926,8.466c-0.286,1.064 -0.429,2.004 -0.429,2.822c-0,1.514 0.49,2.536 1.472,3.068c0.695,0.409 1.534,0.613 2.515,0.613c1.146,0 2.495,-0.266 4.049,-0.797c2.373,-0.818 4.99,-1.943 7.853,-3.375c2.863,-1.431 4.929,-2.638 6.197,-3.619c0.736,-0.573 1.308,-0.859 1.717,-0.859l0.184,-0c0.328,0.082 0.491,0.307 0.491,0.675l0,0.122c-0.041,0.45 -0.266,0.88 -0.675,1.289c-1.063,0.9 -2.914,2.045 -5.552,3.435c-2.638,1.391 -5.307,2.618 -8.006,3.681c-2.249,0.9 -4.335,1.35 -6.258,1.35l-0.675,0c-2.126,-0.082 -3.548,-0.685 -4.263,-1.81c-0.716,-1.124 -1.074,-2.321 -1.074,-3.589c0,-1.104 0.205,-2.413 0.614,-3.926Z" style="fill:#fff;fill-rule:nonzero;"/><path d="M1031.96,542.569c-0.245,-0.654 -0.368,-1.37 -0.368,-2.147c0,-0.287 0.021,-0.573 0.062,-0.859c0.081,-1.104 0.327,-2.066 0.736,-2.884c1.145,-2.126 2.72,-3.701 4.724,-4.724c1.186,-0.49 2.188,-0.736 3.006,-0.736c0.859,0 1.534,0.246 2.024,0.736c0.409,0.369 0.614,0.818 0.614,1.35c-0,0.818 -0.47,1.8 -1.411,2.945c-0.859,0.982 -1.922,1.851 -3.19,2.607c-1.268,0.757 -2.413,1.217 -3.436,1.381l-1.166,0.122l0.123,0.737c0.246,1.717 1.35,2.576 3.313,2.576c1.472,0 3.436,-0.491 5.89,-1.472c3.64,-1.391 6.809,-3.17 9.509,-5.338c0.736,-0.531 1.288,-0.797 1.656,-0.797c0.164,-0 0.287,0.061 0.368,0.184c0.082,0.082 0.123,0.184 0.123,0.307c0,0.368 -0.368,0.899 -1.104,1.595c-2.7,2.29 -5.828,4.233 -9.387,5.828c-1.309,0.532 -2.576,0.951 -3.803,1.258c-1.227,0.306 -2.229,0.46 -3.007,0.46c-0.695,-0 -1.37,-0.082 -2.024,-0.246c-1.391,-0.327 -2.475,-1.288 -3.252,-2.883Zm4.172,-4.969c1.473,-0.737 2.638,-1.555 3.497,-2.454c0.614,-0.655 0.92,-1.207 0.92,-1.657c0,-0.245 -0.163,-0.368 -0.49,-0.368c-0.287,0 -0.675,0.082 -1.166,0.245c-0.736,0.287 -1.493,0.737 -2.27,1.35c-0.777,0.614 -1.411,1.309 -1.902,2.086c-0.45,0.614 -0.675,1.043 -0.675,1.288c0,0.123 0.102,0.184 0.307,0.184c0.286,0 0.879,-0.224 1.779,-0.674Z" style="fill:#fff;fill-rule:nonzero;"/></g><path d="M509.6,525.113c4.025,-0 6.592,-4.351 10.868,-4.351" style="fill:#fff;stroke:#fff;stroke-width:2px;"/></g></g></svg>